<?xml version="1.0" encoding="utf-8"?>
<!-- Generator: Adobe Illustrator 16.0.0, SVG Export Plug-In . SVG Version: 6.00 Build 0)  -->
<!DOCTYPE svg PUBLIC "-//W3C//DTD SVG 1.1//EN" "http://www.w3.org/Graphics/SVG/1.1/DTD/svg11.dtd">
<svg version="1.1" id="Layer_1" xmlns="http://www.w3.org/2000/svg" xmlns:xlink="http://www.w3.org/1999/xlink" x="0px" y="0px"
	 width="119.655px" height="46.374px" viewBox="0 0 119.655 46.374" enable-background="new 0 0 119.655 46.374"
	 xml:space="preserve">
<path fill="#FFFFFF" d="M0.062,0H4.25v19.937c3.25-3.062,6.812-4.499,10.937-4.499c4.063,0,7.812,1.562,10.687,4.499
	c2.877,2.938,4.439,6.814,4.439,10.938c0,4.125-1.562,8.062-4.439,10.938c-2.874,2.936-6.688,4.562-10.687,4.562
	C6.5,46.374,0,39.812,0,29.312c0-0.625,0-1.312,0.062-2V0z M15.187,42.187c6.124,0,11.063-5.002,11.063-11.25
	c0-6.25-4.939-11.312-11.063-11.312S4.125,24.687,4.125,30.937C4.125,37.247,9.062,42.187,15.187,42.187z"/>
<path fill="#FFFFFF" d="M34.685,0h4.25v45.56h-4.25V0z"/>
<path fill="#FFFFFF" d="M68.745,33.437c0,7.875-5.312,12.938-12.125,12.938c-6.812,0-12.187-5.125-12.187-12.938V16.188h4.187
	v17.499c0,5.186,3.562,8.5,7.937,8.5c4.438,0,8-3.314,8-8.5V16.188h4.188V33.437z"/>
<path fill="#FFFFFF" d="M74.199,30.874c0-9.438,3.874-13.937,13.186-14.687v4.187c-6.186,0.688-8.56,3.689-8.56,10.123V45.56h-4.626
	V30.874z"/>
<path fill="#FFFFFF" d="M90.058,30.874c0-9.438,3.874-13.937,13.186-14.687v4.187c-6.187,0.688-8.56,3.689-8.56,10.123V45.56h-4.626
	V30.874z"/>
<path fill="#FFFFFF" d="M119.655,42.17c-0.12,0.006-0.237,0.017-0.359,0.017c-4.373,0-7.936-3.314-7.936-8.5V20.362h8.295v-4.171
	h-8.295V7.938h-4.188v25.499c0,7.812,5.375,12.938,12.187,12.938c0.101,0,0.197-0.011,0.296-0.015V42.17z"/>
</svg>
