<?xml version="1.0" standalone="no"?>
<!DOCTYPE svg PUBLIC "-//W3C//DTD SVG 1.1//EN" "http://www.w3.org/Graphics/SVG/1.1/DTD/svg11.dtd">
<svg width="100%" height="100%" viewBox="0 0 364 300" version="1.1" xmlns="http://www.w3.org/2000/svg" xmlns:xlink="http://www.w3.org/1999/xlink" xml:space="preserve" style="fill-rule:evenodd;clip-rule:evenodd;stroke-linejoin:round;stroke-miterlimit:1.41421;">
    <g transform="matrix(1.07347,0,0,1.07347,-18.839,-12.6706)">
        <path d="M182,62.809C182,62.809 186.001,56.513 187.835,54.036C189.418,51.896 191.317,49.818 193,47.945C194.588,46.176 196.205,44.428 197.933,42.795C199.98,40.86 203.201,38.034 205.28,36.338C206.916,35.004 208.627,33.754 210.408,32.621C212.684,31.173 215.994,29.125 218.937,27.653C221.982,26.13 226.296,24.397 228.68,23.479C230.157,22.911 231.708,22.553 233.239,22.149C235.06,21.667 237.793,20.961 239.608,20.588C241.099,20.282 242.61,20.06 244.125,19.914C246.233,19.71 250.045,19.472 252.252,19.365C253.954,19.283 255.66,19.23 257.364,19.275C259.075,19.321 260.806,19.46 262.519,19.641C264.256,19.824 266.044,20.038 267.783,20.375C270.026,20.808 273.354,21.503 275.976,22.243C278.533,22.964 281.386,24.004 283.518,24.815C285.304,25.495 287.059,26.262 288.77,27.112C290.507,27.975 292.259,28.961 293.941,29.992C295.637,31.03 297.354,32.233 298.944,33.344C300.479,34.417 302.031,35.472 303.481,36.658C305.127,38.004 307.235,39.827 308.821,41.419C310.316,42.919 311.774,44.769 312.997,46.207C314.071,47.47 315.177,48.711 316.159,50.046C317.276,51.563 318.607,53.499 319.697,55.311C320.889,57.292 322.301,59.844 323.308,61.929C324.232,63.843 324.987,65.836 325.74,67.823C326.497,69.82 327.372,72.34 327.849,73.913C328.182,75.007 328.378,76.272 328.606,77.26C328.804,78.121 329.044,78.973 329.213,79.841C329.45,81.062 329.838,83.222 330.031,84.589C330.192,85.735 330.287,86.889 330.368,88.043C330.479,89.628 330.636,92.079 330.698,94.099C330.762,96.22 330.763,99 330.753,100.767C330.745,102.079 330.687,103.39 330.636,104.701C330.566,106.496 330.464,109.483 330.335,111.538C330.22,113.373 330.082,115.209 329.86,117.034C329.595,119.204 329.197,122.061 328.749,124.555C328.199,127.617 327.503,131.84 326.557,135.407C325.568,139.133 323.773,144.192 322.816,146.912C322.239,148.55 321.551,150.15 320.816,151.723C319.81,153.877 317.957,157.621 316.777,159.832C315.838,161.592 314.814,163.309 313.739,164.989C312.41,167.066 310.537,169.918 308.807,172.292C306.898,174.912 303.803,178.791 302.287,180.707C301.457,181.757 300.617,182.802 299.711,183.788C297.827,185.837 293.129,190.743 290.979,193.002C289.597,194.454 288.242,195.933 286.814,197.341C285.257,198.875 283.376,200.599 281.638,202.207C278.52,205.091 272.422,210.773 268.108,214.645C264.039,218.299 259.891,221.863 255.757,225.443C248.924,231.36 236.514,241.748 227.108,250.146C215.044,260.914 190.848,283.225 183.377,290.055C182.999,290.4 182.497,290.924 182.277,291.126C182.212,291.186 182.116,291.25 182.055,291.268C182.007,291.282 181.953,291.255 181.908,291.233C181.841,291.2 181.732,291.131 181.65,291.071C181.555,291 181.435,290.904 181.337,290.811C180.994,290.486 180.181,289.68 179.594,289.124C178.006,287.62 174.432,284.201 171.809,281.783C167.07,277.414 155.718,267.049 151.16,262.908C148.946,260.898 146.699,258.925 144.46,256.942C141.835,254.616 138.434,251.608 135.408,248.955C132.042,246.004 127.986,242.466 124.264,239.235C120.4,235.882 115.389,231.582 112.223,228.834C109.896,226.815 107.582,224.781 105.266,222.749C102.36,220.199 98.259,216.627 94.784,213.534C91.265,210.402 87.21,206.792 84.152,203.953C81.532,201.521 78.86,198.902 76.438,196.502C74.132,194.217 71.703,191.743 69.619,189.551C67.687,187.517 65.721,185.399 63.935,183.344C62.201,181.35 60.461,179.193 58.902,177.221C57.421,175.349 55.858,173.283 54.58,171.512C53.42,169.906 52.301,168.269 51.233,166.6C50.124,164.868 48.89,162.795 47.928,161.118C47.066,159.614 46.221,158.097 45.462,156.538C44.56,154.685 43.311,151.834 42.517,150C41.878,148.525 41.253,147.042 40.697,145.534C40.089,143.883 39.365,141.68 38.867,140.098C38.445,138.758 38.065,137.404 37.71,136.044C37.285,134.41 36.701,132.112 36.312,130.292C35.947,128.582 35.618,126.475 35.379,125.13C35.207,124.162 35.02,123.151 34.878,122.223C34.744,121.34 34.642,120.452 34.533,119.566C34.374,118.284 34.096,116.214 33.929,114.532C33.76,112.824 33.617,111.056 33.517,109.314C33.408,107.434 33.337,105.273 33.278,103.251C33.217,101.179 33.153,98.694 33.151,96.878C33.149,95.371 33.182,93.863 33.265,92.358C33.36,90.667 33.466,88.598 33.716,86.735C34.044,84.289 34.658,80.329 35.237,77.683C35.742,75.371 36.526,72.909 37.189,70.857C37.789,69.002 38.533,67.035 39.216,65.369C39.844,63.839 40.537,62.334 41.288,60.86C42.076,59.317 43.082,57.571 43.941,56.107C44.74,54.745 45.558,53.392 46.441,52.082C47.325,50.769 48.263,49.476 49.249,48.23C50.337,46.855 51.662,45.24 52.967,43.832C54.303,42.39 55.777,40.934 57.269,39.577C58.886,38.106 61.14,36.229 62.673,35.003C63.897,34.024 65.162,33.093 66.465,32.223C67.877,31.28 69.544,30.232 71.147,29.344C72.89,28.379 74.964,27.329 76.926,26.432C78.913,25.522 81.421,24.519 83.073,23.889C84.307,23.418 85.575,23.037 86.838,22.65C88.205,22.232 89.773,21.712 91.275,21.378C93.21,20.946 96.307,20.38 98.45,20.062C100.332,19.783 102.228,19.579 104.129,19.472C106.395,19.343 110.084,19.292 112.046,19.292C113.332,19.291 114.637,19.378 115.901,19.468C117.147,19.557 118.394,19.65 119.63,19.83C121.476,20.1 124.865,20.637 126.979,21.085C128.782,21.468 130.784,22.061 132.317,22.521C133.621,22.912 134.902,23.374 136.179,23.845C137.654,24.389 139.712,25.176 141.164,25.782C142.423,26.308 143.682,26.844 144.888,27.481C146.565,28.366 149.405,29.962 151.225,31.091C152.802,32.069 154.588,33.405 155.805,34.254C156.717,34.891 157.647,35.506 158.527,36.185C159.696,37.087 161.443,38.439 162.816,39.665C164.32,41.006 166.1,42.771 167.549,44.236C168.905,45.607 170.395,47.203 171.509,48.453C172.455,49.514 173.366,50.646 174.233,51.734C175.08,52.798 176.078,54.138 176.709,54.978C177.154,55.571 177.589,56.171 178.017,56.776C178.464,57.408 178.982,58.155 179.391,58.771C179.763,59.331 180.12,59.911 180.473,60.472C180.82,61.025 181.283,61.77 181.505,62.137C181.611,62.312 181.728,62.559 181.806,62.674C181.848,62.736 181.941,62.801 181.973,62.824C181.981,62.83 182,62.809 182,62.809Z" style="fill:white;"/>
    </g>
</svg>
