<?xml version="1.0" standalone="no"?>
<!DOCTYPE svg PUBLIC "-//W3C//DTD SVG 1.1//EN" "http://www.w3.org/Graphics/SVG/1.1/DTD/svg11.dtd">
<svg width="100%" height="100%" viewBox="0 0 364 300" version="1.1" xmlns="http://www.w3.org/2000/svg" xmlns:xlink="http://www.w3.org/1999/xlink" xml:space="preserve" style="fill-rule:evenodd;clip-rule:evenodd;stroke-linejoin:round;stroke-miterlimit:1.41421;">
    <g id="Layer1">
        <g transform="matrix(1.29107,0,0,1.29107,-52.719,19.3601)">
            <g transform="matrix(1,0,0,1,44.0709,10.9278)">
                <path d="M69.404,161.4C69.389,165.323 69.24,178.075 69.404,182.093C69.453,183.276 69.58,184.644 70.392,185.507C71.608,186.798 74.203,189.329 76.703,189.841C81.971,190.919 93.793,192.039 102,191.975C110.024,191.913 120.699,190.363 125.942,189.459C128.59,189.002 131.927,187.953 133.46,186.548C134.878,185.249 135.044,182.949 135.141,181.028C135.372,176.403 135.483,163.648 134.851,158.793C134.518,156.235 132.898,153.954 131.346,151.895C129.011,148.797 124.047,142.962 120.843,140.206C118.322,138.038 115.018,136.384 112.121,135.362C109.37,134.391 106.382,134.056 103.465,134.073C100.12,134.093 95.386,134.438 92.057,135.48C88.927,136.461 86.098,138.454 83.493,140.327C80.915,142.181 78.444,144.422 76.429,146.718C74.465,148.956 72.559,152.13 71.404,154.102C70.589,155.494 69.833,157.334 69.499,158.55C69.248,159.467 69.408,160.449 69.404,161.4Z" style="fill:white;"/>
            </g>
            <g transform="matrix(1,0,0,1,-0.362985,-1.42109e-14)">
                <circle cx="146.759" cy="125.157" r="19.843" style="fill:white;"/>
            </g>
        </g>
        <g transform="matrix(1.29107,0,0,1.29107,-13.8741,19.3601)">
            <g transform="matrix(1,0,0,1,88.1745,10.9278)">
                <path d="M69.404,161.4C69.389,165.323 69.24,178.075 69.404,182.093C69.453,183.276 69.58,184.644 70.392,185.507C71.608,186.798 74.203,189.329 76.703,189.841C81.971,190.919 93.793,192.039 102,191.975C110.024,191.913 120.699,190.363 125.942,189.459C128.59,189.002 131.927,187.953 133.46,186.548C134.878,185.249 135.044,182.949 135.141,181.028C135.372,176.403 135.483,163.648 134.851,158.793C134.518,156.235 132.898,153.954 131.346,151.895C129.011,148.797 124.047,142.962 120.843,140.206C118.322,138.038 115.018,136.384 112.121,135.362C109.37,134.391 106.382,134.056 103.465,134.073C100.12,134.093 95.386,134.438 92.057,135.48C88.927,136.461 86.098,138.454 83.493,140.327C80.915,142.181 78.444,144.422 76.429,146.718C74.465,148.956 72.559,152.13 71.404,154.102C70.589,155.494 69.833,157.334 69.499,158.55C69.248,159.467 69.408,160.449 69.404,161.4Z" style="fill:white;"/>
            </g>
            <g transform="matrix(1,0,0,1,43.7406,-2.84217e-14)">
                <circle cx="146.759" cy="125.157" r="19.843" style="fill:white;"/>
            </g>
        </g>
        <g transform="matrix(1.20834,0,0,1.20834,-183.47,-38.6129)">
            <g transform="matrix(1,0,0,1,88.1745,10.9278)">
                <path d="M69.404,161.4C69.389,165.323 69.24,178.075 69.404,182.093C69.453,183.276 69.58,184.644 70.392,185.507C71.608,186.798 74.203,189.329 76.703,189.841C81.971,190.919 93.793,192.039 102,191.975C110.024,191.913 120.699,190.363 125.942,189.459C128.59,189.002 131.927,187.953 133.46,186.548C134.878,185.249 135.044,182.949 135.141,181.028C135.372,176.403 135.483,163.648 134.851,158.793C134.518,156.235 132.898,153.954 131.346,151.895C129.011,148.797 124.047,142.962 120.843,140.206C118.322,138.038 115.018,136.384 112.121,135.362C109.37,134.391 106.382,134.056 103.465,134.073C100.12,134.093 95.386,134.438 92.057,135.48C88.927,136.461 86.098,138.454 83.493,140.327C80.915,142.181 78.444,144.422 76.429,146.718C74.465,148.956 72.559,152.13 71.404,154.102C70.589,155.494 69.833,157.334 69.499,158.55C69.248,159.467 69.408,160.449 69.404,161.4Z" style="fill:white;"/>
            </g>
            <g transform="matrix(1,0,0,1,43.7406,-2.84217e-14)">
                <circle cx="146.759" cy="125.157" r="19.843" style="fill:white;"/>
            </g>
        </g>
        <g transform="matrix(1.20834,0,0,1.20834,2.74353,-108.582)">
            <g transform="matrix(1,0,0,1,88.1745,10.9278)">
                <path d="M69.404,161.4C69.389,165.323 69.24,178.075 69.404,182.093C69.453,183.276 69.58,184.644 70.392,185.507C71.608,186.798 74.203,189.329 76.703,189.841C81.971,190.919 93.793,192.039 102,191.975C110.024,191.913 120.699,190.363 125.942,189.459C128.59,189.002 131.927,187.953 133.46,186.548C134.878,185.249 135.044,182.949 135.141,181.028C135.372,176.403 135.483,163.648 134.851,158.793C134.518,156.235 132.898,153.954 131.346,151.895C129.011,148.797 124.047,142.962 120.843,140.206C118.322,138.038 115.018,136.384 112.121,135.362C109.37,134.391 106.382,134.056 103.465,134.073C100.12,134.093 95.386,134.438 92.057,135.48C88.927,136.461 86.098,138.454 83.493,140.327C80.915,142.181 78.444,144.422 76.429,146.718C74.465,148.956 72.559,152.13 71.404,154.102C70.589,155.494 69.833,157.334 69.499,158.55C69.248,159.467 69.408,160.449 69.404,161.4Z" style="fill:white;"/>
            </g>
            <g transform="matrix(1,0,0,1,43.7406,-2.84217e-14)">
                <circle cx="146.759" cy="125.157" r="19.843" style="fill:white;"/>
            </g>
        </g>
        <g transform="matrix(1.20834,0,0,1.20834,-96.6291,-108.582)">
            <g transform="matrix(1,0,0,1,88.1745,10.9278)">
                <path d="M69.404,161.4C69.389,165.323 69.24,178.075 69.404,182.093C69.453,183.276 69.58,184.644 70.392,185.507C71.608,186.798 74.203,189.329 76.703,189.841C81.971,190.919 93.793,192.039 102,191.975C110.024,191.913 120.699,190.363 125.942,189.459C128.59,189.002 131.927,187.953 133.46,186.548C134.878,185.249 135.044,182.949 135.141,181.028C135.372,176.403 135.483,163.648 134.851,158.793C134.518,156.235 132.898,153.954 131.346,151.895C129.011,148.797 124.047,142.962 120.843,140.206C118.322,138.038 115.018,136.384 112.121,135.362C109.37,134.391 106.382,134.056 103.465,134.073C100.12,134.093 95.386,134.438 92.057,135.48C88.927,136.461 86.098,138.454 83.493,140.327C80.915,142.181 78.444,144.422 76.429,146.718C74.465,148.956 72.559,152.13 71.404,154.102C70.589,155.494 69.833,157.334 69.499,158.55C69.248,159.467 69.408,160.449 69.404,161.4Z" style="fill:white;"/>
            </g>
            <g transform="matrix(1,0,0,1,43.7406,-2.84217e-14)">
                <circle cx="146.759" cy="125.157" r="19.843" style="fill:white;"/>
            </g>
        </g>
        <g transform="matrix(1.29107,0,0,1.29107,186.366,-48.9678)">
            <g transform="matrix(1,0,0,1,-3.04021,10.9278)">
                <path d="M69.404,161.4C69.389,165.323 69.24,178.075 69.404,182.093C69.453,183.276 69.58,184.644 70.392,185.507C71.608,186.798 74.203,189.329 76.703,189.841C81.971,190.919 93.793,192.039 102,191.975C110.024,191.913 120.699,190.363 125.942,189.459C128.59,189.002 131.927,187.953 133.46,186.548C134.878,185.249 135.044,182.949 135.141,181.028C135.372,176.403 135.483,163.648 134.851,158.793C134.518,156.235 132.898,153.954 131.346,151.895C129.011,148.797 124.047,142.962 120.843,140.206C118.322,138.038 115.018,136.384 112.121,135.362C109.37,134.391 106.382,134.056 103.465,134.073C100.12,134.093 95.386,134.438 92.057,135.48C88.927,136.461 86.098,138.454 83.493,140.327C80.915,142.181 78.444,144.422 76.429,146.718C74.465,148.956 72.559,152.13 71.404,154.102C70.589,155.494 69.833,157.334 69.499,158.55C69.248,159.467 69.408,160.449 69.404,161.4Z" style="fill:white;"/>
            </g>
            <g transform="matrix(1,0,0,1,-47.4741,-1.42109e-14)">
                <circle cx="146.759" cy="125.157" r="19.843" style="fill:white;"/>
            </g>
        </g>
    </g>
</svg>
