<?xml version="1.0" standalone="no"?>
<!DOCTYPE svg PUBLIC "-//W3C//DTD SVG 1.1//EN" "http://www.w3.org/Graphics/SVG/1.1/DTD/svg11.dtd">
<svg width="100%" height="100%" viewBox="0 0 364 300" version="1.1" xmlns="http://www.w3.org/2000/svg" xmlns:xlink="http://www.w3.org/1999/xlink" xml:space="preserve" style="fill-rule:evenodd;clip-rule:evenodd;stroke-linejoin:round;stroke-miterlimit:1.41421;">
    <g transform="matrix(1.76113,0,0,1.76113,-154.395,-117.109)">
        <path d="M185.588,184.859C185.281,184.559 184.359,184.098 183.851,183.593C183.202,182.948 182.199,181.998 181.696,180.99C181.155,179.904 180.711,178.393 180.602,177.077C180.493,175.76 180.648,174.312 181.042,173.092C181.437,171.872 182.194,170.726 182.969,169.757C183.736,168.798 184.674,167.92 185.693,167.277C186.713,166.634 187.976,166.139 189.085,165.898C190.149,165.668 191.284,165.717 192.349,165.835C193.415,165.953 194.517,166.126 195.479,166.604C196.455,167.088 197.428,167.889 198.208,168.742C199.009,169.62 199.803,171.022 200.29,171.871C200.645,172.49 201.005,173.137 201.131,173.839C201.307,174.827 201.619,176.504 201.349,177.798C201.052,179.217 200.18,181.15 199.351,182.348C198.597,183.439 196.91,184.448 196.376,184.987C196.226,185.139 196.172,185.373 196.149,185.585C196.113,185.923 196.161,186.537 196.161,187.014C196.163,189.764 196.182,199.325 196.161,202.09C196.157,202.596 196.166,203.114 196.038,203.604C195.903,204.119 195.679,204.711 195.352,205.183C195.002,205.689 194.486,206.24 193.938,206.636C193.375,207.043 192.691,207.471 191.974,207.628C191.238,207.79 190.243,207.781 189.523,207.605C188.831,207.437 188.182,207.028 187.651,206.575C187.12,206.121 186.664,205.44 186.335,204.884C186.034,204.376 185.778,203.82 185.675,203.238C185.56,202.59 185.644,201.743 185.645,200.995C185.648,198.202 185.689,189.077 185.697,186.477C185.698,186.117 185.71,185.666 185.692,185.396C185.68,185.214 185.718,184.987 185.588,184.859ZM149.159,138.286C149.164,132.668 149.004,112.573 149.106,106.398C149.135,104.664 149.414,102.934 149.773,101.237C150.174,99.347 150.935,96.668 151.508,95.059C151.94,93.843 152.601,92.721 153.206,91.581C153.823,90.422 154.516,89.248 155.205,88.102C155.918,86.916 156.62,85.608 157.481,84.468C158.401,83.251 159.75,81.836 160.723,80.798C161.553,79.913 162.427,79.068 163.319,78.245C164.427,77.224 165.951,75.659 167.367,74.671C168.744,73.711 170.446,73.009 171.82,72.319C173.068,71.691 174.301,71.018 175.609,70.529C177.094,69.973 179.144,69.398 180.727,68.985C182.172,68.609 183.628,68.243 185.109,68.054C186.85,67.831 189.268,67.649 191.17,67.652C192.961,67.654 194.784,67.838 196.525,68.072C198.237,68.302 199.946,68.603 201.614,69.054C203.4,69.538 205.787,70.417 207.243,70.974C208.307,71.38 209.375,71.904 210.351,72.392C211.286,72.858 212.219,73.336 213.101,73.897C214.212,74.603 215.86,75.73 217.019,76.628C218.083,77.453 219.092,78.349 220.058,79.286C221.133,80.329 222.411,81.617 223.471,82.886C224.54,84.166 225.563,85.544 226.474,86.966C227.44,88.475 228.52,90.352 229.268,91.937C229.956,93.398 230.433,94.974 230.959,96.476C231.479,97.957 232.097,99.671 232.427,100.949C232.696,101.994 232.823,103.073 232.939,104.146C233.055,105.225 233.12,106.33 233.126,107.425C233.157,113.104 233.123,132.747 233.126,138.22C233.126,138.9 233.123,139.785 233.139,140.261C233.149,140.536 232.985,140.949 233.226,141.08C233.476,141.217 234.172,141.04 234.643,141.08C235.241,141.131 236.091,141.267 236.811,141.386C237.574,141.512 238.444,141.586 239.222,141.837C240.132,142.131 241.414,142.712 242.27,143.147C243.001,143.518 243.681,143.984 244.359,144.445C245.146,144.98 246.188,145.627 246.989,146.357C247.918,147.203 249.07,148.412 249.933,149.52C250.78,150.608 251.583,151.791 252.167,153.004C252.745,154.205 253.14,155.642 253.436,156.797C253.699,157.824 253.935,158.876 253.944,159.936C254.029,169.985 254.053,206.943 253.944,217.086C253.931,218.34 253.666,219.595 253.291,220.792C252.881,222.098 252.289,223.652 251.485,224.921C250.639,226.259 249.293,227.639 248.212,228.817C247.195,229.926 246.278,231.192 245.002,231.99C243.423,232.976 240.714,234.132 238.742,234.737C236.944,235.289 235.049,235.548 233.17,235.622C229.414,235.769 221.857,235.622 216.201,235.622C201.967,235.622 159.987,235.763 147.768,235.622C146.116,235.603 144.453,235.294 142.885,234.774C141.191,234.213 139.126,233.213 137.609,232.255C136.199,231.365 134.892,230.275 133.785,229.027C132.502,227.58 130.811,225.453 129.909,223.571C129.039,221.757 128.666,219.657 128.372,217.734C128.083,215.854 128.148,213.935 128.141,212.033C128.102,202.332 127.858,169.266 128.141,159.531C128.2,157.482 129.196,155.281 129.837,153.621C130.387,152.196 131.07,150.796 131.984,149.572C132.921,148.317 134.203,147.128 135.461,146.095C136.719,145.062 138.13,144.112 139.533,143.374C140.911,142.649 142.448,142.021 143.88,141.665C145.26,141.322 147.289,141.334 148.126,141.237C148.387,141.206 148.741,141.269 148.899,141.08C149.057,140.891 149.043,140.432 149.073,140.102C149.117,139.636 149.158,138.892 149.159,138.286ZM169.999,128.42C169.994,129.704 169.916,131.585 170.049,132.27C170.1,132.53 170.534,132.531 170.799,132.533C177.627,132.587 204.167,132.584 211.02,132.593C211.321,132.594 211.764,132.632 211.922,132.588C212.005,132.565 211.963,132.419 211.964,132.332C211.976,131.225 211.977,127.628 211.989,125.946C211.998,124.71 212.038,123.475 212.038,122.24C212.038,117.875 212.089,104.077 211.991,99.754C211.964,98.588 211.788,97.414 211.448,96.299C211.011,94.86 210.018,92.427 209.365,91.122C208.883,90.16 208.19,89.317 207.531,88.468C206.857,87.6 206.14,86.688 205.322,85.916C204.485,85.126 203.501,84.382 202.509,83.728C201.414,83.006 199.937,82.105 198.751,81.581C197.684,81.109 196.51,80.82 195.395,80.583C194.3,80.35 193.182,80.197 192.064,80.158C190.909,80.118 189.653,80.157 188.467,80.344C187.223,80.54 185.722,80.989 184.602,81.334C183.629,81.634 182.653,81.953 181.747,82.416C180.804,82.898 179.839,83.566 178.947,84.225C178.055,84.884 177.211,85.617 176.395,86.372C175.542,87.161 174.569,88.002 173.828,88.96C173.087,89.917 172.445,91.071 171.949,92.117C171.475,93.114 171.142,94.202 170.848,95.24C170.56,96.257 170.214,97.286 170.187,98.343C170.045,103.873 170.022,122.766 169.999,128.42Z" style="fill:white;"/>
    </g>
</svg>
