<?xml version="1.0" standalone="no"?>
<!DOCTYPE svg PUBLIC "-//W3C//DTD SVG 1.1//EN" "http://www.w3.org/Graphics/SVG/1.1/DTD/svg11.dtd">
<svg width="100%" height="100%" viewBox="0 0 480 400" version="1.1" xmlns="http://www.w3.org/2000/svg" xmlns:xlink="http://www.w3.org/1999/xlink" xml:space="preserve" style="fill-rule:evenodd;clip-rule:evenodd;stroke-linejoin:round;stroke-miterlimit:1.41421;">
    <g transform="matrix(1.05374,0,0,1.17745,-15.3389,-164.725)">
        <path d="M431.391,144.862C458.234,144.862 466.674,165.665 466.675,192.507C466.675,219.335 458.235,242.049 431.39,242.049L356.11,242.049L181.094,448.642C171.871,459.523 158.344,465.816 144.094,465.832L48.676,465.978C48.645,465.978 48.614,465.978 48.598,465.978C21.785,465.978 18.008,444.277 17.957,417.448C17.91,390.621 21.688,368.823 48.516,368.787L121.457,368.679L146.656,338.924C146.609,338.131 227.41,243.601 227.41,243.601L296.504,162.042C305.742,151.143 319.297,144.862 333.582,144.862L431.391,144.862ZM256.467,292.027C256.752,289.997 255.44,288.959 253.525,289.708L226.873,301.762C226.01,302.101 225.151,302.96 224.702,303.937C224.251,304.913 224.297,305.814 224.818,306.226L229.169,309.703L208.539,335.767C206.984,337.732 206.659,340.056 207.806,340.964L217.088,348.31C218.235,349.218 220.423,348.366 221.977,346.403L242.606,320.338L247.089,323.982C247.607,324.392 248.497,324.233 249.344,323.569C250.191,322.906 250.831,321.873 250.961,320.956L256.467,292.027Z" style="fill:white;"/>
    </g>
</svg>
