<?xml version="1.0" standalone="no"?>
<!DOCTYPE svg PUBLIC "-//W3C//DTD SVG 1.1//EN" "http://www.w3.org/Graphics/SVG/1.1/DTD/svg11.dtd">
<svg width="100%" height="100%" viewBox="0 0 17 17" version="1.1" xmlns="http://www.w3.org/2000/svg" xmlns:xlink="http://www.w3.org/1999/xlink" xml:space="preserve" style="fill-rule:evenodd;clip-rule:evenodd;stroke-linejoin:round;stroke-miterlimit:1.41421;">
    <g transform="matrix(0.692383,-0.628791,0.628791,0.692383,-3.97667,12.6285)">
        <g transform="matrix(0.00460334,0.00288347,-0.00288347,0.00460334,13.4078,3.72154)">
            <path d="M239.318,129.859C257.32,129.859 274.741,122.013 286.687,108.548C298.749,94.955 304.41,76.5 302.117,58.477C299.869,40.8 289.973,24.616 275.336,14.471C260.341,4.077 241.153,0.679 223.486,5.227C206.333,9.642 191.536,21.39 183.276,37.049C174.754,53.208 173.692,72.778 180.397,89.772C186.885,106.213 200.313,119.474 216.836,125.751C224.002,128.474 231.653,129.859 239.318,129.859Z" style="fill:white;fill-rule:nonzero;"/>
        </g>
        <g transform="matrix(0.00460334,0.00288347,-0.00288347,0.00460334,13.3667,3.76758)">
            <path d="M396.377,3.368C387.834,-2.567 376.101,-0.453 370.164,8.089C370.164,8.089 311.367,97.735 291.203,121.742C276.157,139.655 261.824,144.657 240.224,141.671C234.338,140.857 191.465,130.489 154.212,121.358C123.948,113.94 97.393,107.338 97.393,107.338C88.119,105.098 71.978,108.24 68.817,117.232C65.765,125.912 76.043,138.008 84.188,142.301C84.93,142.692 85.699,143.033 86.486,143.323L229.838,196.085C230.654,198.554 237.684,217.572 241.671,237.478C244.209,250.141 245.285,263.044 246.016,275.925C246.531,284.957 246.391,293.994 246.287,303.034C246.18,312.351 247.708,321.467 251.4,330.057C251.084,341.824 250.475,353.588 249.475,365.318C248.38,378.152 246.368,390.909 244.271,403.627C241.621,419.696 237.467,425.873 237.188,426.292C232.044,428.238 225.818,427.571 220.492,426.872C214.129,426.037 207.86,424.534 201.706,422.732C196.298,421.148 190.963,419.315 185.706,417.288C181.526,415.676 177.458,413.836 173.338,412.087C171.421,411.274 169.516,410.373 167.407,409.916C165.241,409.446 163.009,409.294 160.799,409.463C156.423,409.798 152.172,411.398 148.665,414.035C141.341,419.547 137.953,429.18 140.188,438.06C141.771,444.346 146.008,449.755 151.734,452.794C170.111,462.844 189.764,471.466 210.3,475.922C221.419,478.334 232.955,479.523 244.277,477.895C256.04,476.205 267.222,471.272 275.762,462.902C277.799,460.906 279.679,458.71 281.37,456.411C281.37,456.418 281.366,456.425 281.358,456.431C281.337,456.46 281.314,456.492 281.294,456.524C282.222,454.98 283.398,453.56 284.376,452.045C286.042,449.471 287.579,446.815 289.001,444.098C291.848,438.662 294.282,433.013 296.446,427.275C300.79,415.756 304.152,403.875 307.037,391.915C308.932,384.063 310.62,376.162 312.148,368.231C315.345,368.091 318.512,367.719 321.652,367.105C327.331,378.713 332.594,390.533 337.061,402.665C325.101,407.33 306.736,413.373 311.821,425.157C315.262,433.136 331.956,448.797 337.826,455.279C344.207,462.325 352.286,467.795 361.51,470.333C366.554,471.723 371.85,472.19 377.028,471.393C387.428,469.761 396.135,461.665 397.988,450.712C401.992,427.126 398.169,403.017 392.749,379.96C389.812,367.469 386.236,355.125 382.246,342.932C379.634,334.948 376.929,326.954 373.793,319.157C373.171,317.61 372.577,316.051 371.915,314.519C372.689,309.334 372.754,304.134 372.324,298.917C371.894,293.702 371.537,288.473 370.999,283.268C369.727,270.952 368.01,258.651 365.692,246.487C360.862,221.153 354.073,196.12 344.089,172.301C341.377,165.831 338.464,159.453 335.217,153.234C358.674,110.577 397.848,56.556 404.591,26.112C409.047,17.795 404.308,8.879 396.377,3.368C387.834,-2.567 404.308,8.879 396.377,3.368Z" style="fill:white;fill-rule:nonzero;"/>
        </g>
    </g>
    <g id="reply" transform="matrix(-0.0062224,0.00387609,-0.00218168,-0.00350231,9.15642,8.57499)">
        <path d="M178.5,140.25L178.5,38.25L0,216.75L178.5,395.25L178.5,290.7C306,290.7 395.25,331.5 459,420.75C433.5,293.25 357,165.75 178.5,140.25Z" style="fill:white;fill-rule:nonzero;"/>
    </g>
    <g transform="matrix(1.4181,0,0,1.4181,-4.78973,-2.69732)">
        <path d="M9.371,2.007C6.124,2.007 3.482,4.649 3.482,7.896C3.482,11.144 6.125,13.785 9.371,13.785C12.619,13.785 15.261,11.144 15.261,7.896C15.261,4.649 12.619,2.007 9.371,2.007ZM11.103,12.684C11.103,12.684 11.369,10.849 11.164,12.885C13.089,12.193 14.5,10.419 14.659,8.298C14.499,8.701 14.056,9.033 13.977,9.293C14.025,10.165 13.504,10.7 13.322,10.482C13.141,10.265 13.144,8.882 12.853,8.191C12.563,7.501 12.164,7.828 11.946,7.896C11.728,7.964 11.1,7.928 11.936,6.94C11.936,6.94 12.048,6.514 12.205,6.474C12.332,6.441 12.34,5.98 12.34,5.98C12.514,5.333 13.035,4.612 13.501,4.569C12.527,3.363 11.039,2.588 9.371,2.588C8.11,2.588 6.951,3.033 6.038,3.769C6.627,3.731 7.445,3.551 7.823,4.27C8.307,5.191 8.211,4.27 8.695,4.609C9.179,4.948 9.712,4.693 9.712,4.693C9.712,4.693 10.584,5.142 9.325,5.433C8.065,5.724 7.92,6.063 8.162,6.16C8.404,6.257 8.791,5.482 8.937,5.918C9.082,6.354 8.889,6.818 8.55,6.901C8.211,6.984 8.065,6.479 7.629,6.901C7.194,7.323 7.436,8.146 7.436,8.146C7.436,8.146 7.824,9.322 8.356,9.315C8.889,9.308 9.616,10.929 8.356,9.998C7.097,9.066 6.419,9.647 5.257,8.049C4.712,7.3 4.41,6.841 4.24,6.562C4.129,6.988 4.064,7.434 4.064,7.895C4.064,10.823 6.445,13.204 9.371,13.204C9.816,13.204 10.246,13.143 10.66,13.04C10.148,12.876 10.29,11.654 10.24,11.243C10.184,10.807 9.787,10.669 9.787,10.669C9.787,10.669 8.585,8.131 10.082,8.711C10.082,8.711 10.32,9.469 10.901,9.647C11.482,9.825 12,9.95 11.813,10.062C11.627,10.174 13.129,9.849 12.838,10.37C12.547,10.891 12.063,11.134 12.015,11.327C11.967,11.521 11.58,12.005 11.58,12.005L11.196,12.552L11.103,12.684ZM11.164,12.885C11.369,10.849 11.103,12.684 11.103,12.684L11.196,12.552L11.164,12.885ZM13.887,6.047C13.651,5.984 13.409,6.124 13.346,6.36C13.328,6.426 13.326,6.492 13.338,6.555C13.339,6.559 13.521,7.414 13.521,7.414L14.102,6.77C14.147,6.72 14.181,6.658 14.2,6.589C14.263,6.353 14.123,6.11 13.887,6.047ZM13.704,6.73C13.563,6.692 13.479,6.547 13.517,6.405C13.555,6.264 13.7,6.18 13.842,6.218C13.983,6.256 14.067,6.401 14.029,6.543C13.991,6.684 13.846,6.768 13.704,6.73Z" style="fill:white;"/>
    </g>
</svg>
