<?xml version="1.0" standalone="no"?>
<!DOCTYPE svg PUBLIC "-//W3C//DTD SVG 1.1//EN" "http://www.w3.org/Graphics/SVG/1.1/DTD/svg11.dtd">
<svg width="100%" height="100%" viewBox="0 0 48 48" version="1.1" xmlns="http://www.w3.org/2000/svg" xmlns:xlink="http://www.w3.org/1999/xlink" xml:space="preserve" style="fill-rule:evenodd;clip-rule:evenodd;stroke-linejoin:round;stroke-miterlimit:1.41421;">
    <g id="Layer_1_142_" transform="matrix(3.34639,0,0,3.34639,-28.074,-38.8441)">
        <g transform="matrix(0.397875,0,0,0.397875,2.86915,13.1349)">
            <path d="M22.267,19.763L22.865,15.913L22.564,15.428C22.521,15.361 22.529,15.273 22.583,15.214L23.368,14.366C23.436,14.294 23.56,14.294 23.628,14.366L24.413,15.214C24.467,15.273 24.475,15.36 24.432,15.428L24.131,15.913L24.729,19.762C29.452,19.683 32.312,19.144 32.312,18.582C32.312,15.837 30.446,15.716 28.372,15.038C27.094,14.623 25.51,14.389 25.85,12.187C26.692,11.417 26.985,9.832 26.985,9.832C26.985,9.832 28.106,9.267 28.235,8.185C28.33,7.36 27.899,6.977 27.899,6.977C27.899,6.977 27.899,6.918 27.899,5.931C27.899,3.601 25.903,1.766 23.502,1.766C21.1,1.766 19.104,3.601 19.104,5.931C19.104,6.918 19.104,6.977 19.104,6.977C19.104,6.977 18.674,7.36 18.769,8.185C18.897,9.267 20.018,9.832 20.018,9.832C20.018,9.832 20.312,11.418 21.154,12.187C21.492,14.388 19.909,14.623 18.631,15.038C16.556,15.716 14.691,15.837 14.691,18.582C14.685,19.143 17.544,19.683 22.267,19.763Z" style="fill:white;fill-rule:nonzero;"/>
        </g>
        <g transform="matrix(0.0292162,0,0,0.0292162,10.1262,10.4717)">
            <g transform="matrix(1,0,0,1,1.12931,47.8051)">
                <path d="M160,224L256,224C220.625,224 192,195.344 192,160L192.041,144.274C201.416,144.274 215.743,131.231 221.379,127.591C230.771,121.524 236.244,111.653 242.046,102.145C256.528,78.413 255.472,88.437 319.472,88.437L320,160C320,195.344 291.312,224 256,224L352,224C369.688,224 384,209.672 384,192C366.312,192 352,177.672 352,160L352,96C352,42.984 309,0 256,0C202.937,0 160,42.984 160,96L160,160C160,177.672 145.656,192 128,192C128,209.672 142.313,224 160,224Z" style="fill:white;fill-rule:nonzero;"/>
            </g>
            <g transform="matrix(1,0,0,1,1.12931,0.826607)">
                <path d="M352,288L288,288L320,320L256,387.173L192,320L224,288L160,288C124.625,288 96,316.656 96,352L96,480C96,497.688 110.313,512 128,512L384,512C401.688,512 416,497.688 416,480L416,416L416,352C416,316.656 387.312,288 352,288Z" style="fill:white;fill-rule:nonzero;"/>
            </g>
        </g>
    </g>
</svg>
